<?xml version="1.0" encoding="utf-8"?>
<!-- Generator: Adobe Illustrator 24.0.0, SVG Export Plug-In . SVG Version: 6.00 Build 0)  -->
<svg version="1.1" id="Layer_1" xmlns="http://www.w3.org/2000/svg" xmlns:xlink="http://www.w3.org/1999/xlink" x="0px" y="0px"
	 viewBox="0 0 256 256" style="enable-background:new 0 0 256 256;" xml:space="preserve">
<style type="text/css">
	.st0{fill:#D8262C;}
</style>
<g>
	<g>
		<path class="st0" d="M133.51,104.95H63.5c-15.44,0-28-12.56-28-28c0-10.79,6.25-20.51,15.7-25.14C52.51,29.63,70.97,12,93.47,12
			c18.47,0,34.4,11.85,40.1,28.69c17.69,0.03,32.07,14.43,32.07,32.13C165.65,90.53,151.23,104.95,133.51,104.95z M63.73,53.92
			c0.13,0.53,0.19,0.99,0.23,1.33c0.4,3.11-1.55,6.03-4.57,6.87c-6.64,1.84-11.29,7.94-11.29,14.83c0,8.49,6.91,15.4,15.4,15.4
			h70.01c10.77,0,19.53-8.76,19.53-19.53s-8.76-19.52-19.53-19.52c-5.49,0-10.57,2.22-14.31,6.24l-9.23-8.58
			c3.13-3.37,6.93-5.99,11.1-7.74c-4.42-11-15.19-18.61-27.6-18.61C77.2,24.6,63.95,37.72,63.73,53.92z M53.19,59.81
			C53.2,59.81,53.2,59.81,53.19,59.81C53.2,59.81,53.2,59.81,53.19,59.81z"/>
	</g>
	<g>
		<rect x="85.89" y="119.8" class="st0" width="97.7" height="12.6"/>
	</g>
	<g>
		<rect x="85.89" y="154.71" class="st0" width="97.7" height="12.6"/>
	</g>
	<g>
		<circle class="st0" cx="56.59" cy="124.54" r="6.24"/>
	</g>
	<g>
		<circle class="st0" cx="56.59" cy="161.01" r="6.24"/>
	</g>
	<g>
		<circle class="st0" cx="162.62" cy="213.76" r="6.24"/>
	</g>
	<g>
		<path class="st0" d="M202.32,242h-79.23c-10.03,0-18.18-8.66-18.18-19.31v-36.72h12.61v36.72c0,3.7,2.5,6.7,5.58,6.7h79.23
			c3.08,0,5.58-3.01,5.58-6.7V79.63c0-3.7-2.5-6.7-5.58-6.7h-42.97v-12.6h42.97c10.03,0,18.18,8.66,18.18,19.3v143.06
			C220.5,233.34,212.34,242,202.32,242z"/>
	</g>
</g>
</svg>
